<svg xmlns="http://www.w3.org/2000/svg" xmlns:xlink="http://www.w3.org/1999/xlink" aria-hidden="true" role="img" class="iconify iconify--lucide w-8 h-8" width="24" height="24" viewBox="0 0 24 24">
  <g fill="none" stroke="#1f2842" stroke-linecap="round" stroke-linejoin="round" stroke-width="2">
    <rect width="24" height="24" fill="" stroke="none"/>
    <path d="M6 22a2 2 0 0 1-2-2V4a2 2 0 0 1 2-2h8a2.4 2.4 0 0 1 1.704.706l3.588 3.588A2.4 2.4 0 0 1 20 8v12a2 2 0 0 1-2 2z" fill="#fff"/>
    <path d="M14 2v5a1 1 0 0 0 1 1h5M8 18v-2m4 2v-4m4 4v-6"/>
  </g>
</svg>